<?xml version="1.0" encoding="UTF-8"?>
<svg version="1.1" xmlns="http://www.w3.org/2000/svg" width="1295" height="469">
<path d="M0 0 C427.35 0 854.7 0 1295 0 C1295 154.77 1295 309.54 1295 469 C867.65 469 440.3 469 0 469 C0 314.23 0 159.46 0 0 Z " fill="#FEFEFE" transform="translate(0,0)"/>
<path d="M0 0 C2.9092147 1.39928749 4.99499275 2.74602449 7.28051758 5.03759766 C7.89828568 5.65228912 8.51605377 6.26698059 9.15254211 6.90029907 C10.13857674 7.89711197 10.13857674 7.89711197 11.14453125 8.9140625 C11.83254318 9.60253265 12.52055511 10.29100281 13.22941589 11.00033569 C14.68502068 12.45895983 16.13819597 13.92001191 17.58911133 15.38330078 C19.78878304 17.60108772 21.99620887 19.81090877 24.20507812 22.01953125 C25.62286572 23.44224022 27.04019781 24.86540331 28.45703125 26.2890625 C29.10831497 26.94145905 29.75959869 27.59385559 30.43061829 28.26602173 C34.26478316 32.13918604 37.92269159 36.11888011 41.47491455 40.25253296 C43.52897651 42.60610966 45.71215392 44.80889001 47.9375 47 C48.70964844 47.763125 49.48179687 48.52625 50.27734375 49.3125 C51.13005859 50.1478125 51.13005859 50.1478125 52 51 C50.63572891 54.14379236 49.18903826 55.93336757 46.54466248 58.09239197 C41.1889445 62.63148401 36.257328 67.57099667 31.28540039 72.52172852 C30.23183865 73.56737056 29.17810239 74.61283679 28.12420654 75.65814209 C24.69501219 79.06137311 21.27103706 82.46982878 17.84765625 85.87890625 C16.66392479 87.05727097 15.48018796 88.23563029 14.29644585 89.4139843 C9.37596936 94.3128867 4.45691046 99.21320518 -0.45844173 104.11724949 C-7.4853998 111.12792759 -14.52074967 118.12993914 -21.56790727 125.12031418 C-26.53560027 130.0493418 -31.4937044 134.98788459 -36.44474798 139.93363518 C-39.39798008 142.88321467 -42.35524654 145.82846495 -45.32282829 148.76361275 C-48.10895981 151.51971702 -50.88303264 154.28740566 -53.64828491 157.06445312 C-54.66424325 158.08063251 -55.68448842 159.09254686 -56.70929146 160.09980583 C-58.10820526 161.47606305 -59.49028162 162.86937258 -60.8714447 164.26344299 C-61.64918715 165.0378753 -62.42692961 165.81230761 -63.22824001 166.61020756 C-65.3425998 169.46210684 -65.7901903 171.48074076 -66 175 C-64.90045131 177.17448492 -64.90045131 177.17448492 -63.03491211 178.92944336 C-62.38279755 179.60973602 -61.73068298 180.29002869 -61.05880737 180.99093628 C-60.37940094 181.65392731 -59.69999451 182.31691833 -59 183 C-58.39946808 183.5884671 -57.79893616 184.1769342 -57.1802063 184.78323364 C-55.28931206 186.59026414 -53.36928767 188.36142088 -51.44140625 190.12890625 C-41.16971958 199.67654392 -31.26625756 209.58278477 -21.36309814 219.50994873 C-19.42707021 221.4486291 -17.48727404 223.38351914 -15.54755306 225.31850338 C-13.2259022 227.63570447 -10.90802676 229.95667411 -8.58984375 232.27734375 C-7.72447495 233.14068832 -6.85910614 234.0040329 -5.96751404 234.89353943 C-4.7885128 236.07726891 -4.7885128 236.07726891 -3.58569336 237.28491211 C-2.89084335 237.98055771 -2.19599335 238.67620331 -1.48008728 239.39292908 C0 241 0 241 0 242 C-13.06510598 242.06951816 -26.13016793 242.12282065 -39.19542122 242.15543652 C-45.26218322 242.17109068 -51.32881865 242.19232473 -57.39550781 242.22631836 C-63.25046915 242.25892021 -69.10530875 242.27685489 -74.96035385 242.28463173 C-77.19386588 242.29017371 -79.42737126 242.30099581 -81.66083145 242.31719017 C-84.78982173 242.33897502 -87.91830933 242.34196643 -91.04736328 242.34057617 C-91.97021622 242.351362 -92.89306915 242.36214783 -93.84388733 242.3732605 C-101.29624256 242.33744385 -105.76838397 240.53957684 -111.19245911 235.21412659 C-111.67889389 234.72161911 -112.16532867 234.22911163 -112.66650391 233.72167969 C-113.19740128 233.19603928 -113.72829865 232.67039886 -114.27528381 232.12882996 C-116.016632 230.40061356 -117.74685855 228.66173978 -119.4765625 226.921875 C-120.6910805 225.70937999 -121.90604337 224.49733043 -123.12142944 223.28570557 C-125.66300841 220.74854099 -128.19910452 218.20605223 -130.73144531 215.65966797 C-133.96704499 212.4069955 -137.21590263 209.16795386 -140.46901894 205.93281174 C-142.9795665 203.43314141 -145.48287971 200.92632406 -147.98411179 198.41733551 C-149.17873747 197.22071776 -150.37557032 196.02629907 -151.57469559 194.83419037 C-153.25462017 193.16194306 -154.92453294 191.48027451 -156.59228516 189.79589844 C-157.0827684 189.31148788 -157.57325165 188.82707733 -158.07859802 188.32798767 C-162.29491234 184.03406823 -165.61905358 179.61900665 -166.5 173.5625 C-165.38713359 165.63332685 -160.93212784 160.34633878 -155.36883545 154.88781738 C-154.70388227 154.2194465 -154.03892909 153.55107562 -153.35382581 152.86245108 C-151.13686439 150.63893316 -148.90597184 148.42995905 -146.67480469 146.22070312 C-145.07731646 144.62434384 -143.48070981 143.02710194 -141.88491821 141.42904663 C-137.55949262 137.10247485 -133.22185781 132.78833474 -128.88191128 128.47633553 C-124.34504425 123.96449752 -119.81952518 119.44130629 -115.29278564 114.91931152 C-107.69640448 107.33394453 -100.09309213 99.75560582 -92.484375 92.18261719 C-84.64959496 84.38458885 -76.8190537 76.58234388 -68.99414062 68.77441406 C-68.26987704 68.05172682 -68.26987704 68.05172682 -67.53098187 67.31443983 C-65.10857601 64.89725436 -62.68625287 62.479986 -60.26397085 60.06267643 C-40.1887896 40.02891923 -20.09900768 20.00985111 0 0 Z " fill="#FBC64D" transform="translate(231,56)"/>
<path d="M0 0 C12.15243728 -0.04635486 24.30485351 -0.08188529 36.45736122 -0.10362434 C42.10034942 -0.11405836 47.7432771 -0.1282107 53.38623047 -0.15087891 C58.83270233 -0.17262073 64.27911599 -0.18457151 69.7256279 -0.18975449 C71.80282889 -0.19344782 73.88002672 -0.20065995 75.95720291 -0.21146011 C78.86818559 -0.2259927 81.77892825 -0.22797718 84.68994141 -0.22705078 C85.54733917 -0.23424133 86.40473694 -0.24143188 87.28811646 -0.24884033 C94.3117727 -0.2246776 99.30702284 0.88606141 104.5625 5.8125 C105.41714844 6.61042969 106.27179688 7.40835938 107.15234375 8.23046875 C110.9185478 11.89334758 114.63008316 15.60830584 118.32470703 19.34326172 C121.11339402 22.15333056 123.91238664 24.87878527 126.9375 27.4375 C135.34645532 34.59405772 143.28272006 42.6930666 150.40625 51.125 C152.98826704 54.16266711 155.70445442 57.08111342 158.3984375 60.01953125 C161.22629721 63.51642118 161.47975044 67.14379372 161.38989776 71.4900794 C160.31832108 78.38822719 153.08361581 84.20993569 148.31382751 88.96032715 C147.66702752 89.61236382 147.02022753 90.26440049 146.35382754 90.93619585 C144.20534813 93.09956641 142.04988883 95.25583728 139.89428711 97.41210938 C138.34449353 98.96953114 136.79510111 100.52735219 135.24607849 102.08554077 C131.05284793 106.30064332 126.85312992 110.50922208 122.6514976 114.7159481 C120.02687769 117.3442167 117.40355936 119.97377742 114.78067207 122.60377502 C106.10296102 131.30468368 97.42066598 140.00098381 88.73301523 148.6919679 C88.26577597 149.15938998 87.7985367 149.62681206 87.31713867 150.10839844 C86.8493261 150.57639156 86.38151353 151.04438468 85.89952482 151.52655941 C78.30200009 159.12763381 70.71631299 166.7404049 63.13569646 174.35833853 C55.34440065 182.18768044 47.54359767 190.00744156 39.73362738 197.81815577 C35.35184991 202.20072767 30.9741754 206.58721997 26.60621452 210.98356628 C22.50413417 215.11171074 18.39038293 219.22784867 14.26720619 223.33491898 C12.75395008 224.846352 11.24498411 226.362094 9.74059296 227.88235092 C7.69143866 229.9517985 5.62759047 232.00535878 3.55918884 234.05554199 C2.96307594 234.66485487 2.36696303 235.27416774 1.7527861 235.90194464 C-0.69032381 238.29594652 -2.33564233 239.88493769 -5.76322365 240.47857189 C-9.00587109 239.78478777 -10.45151387 238.1839171 -12.7902832 235.85668945 C-13.71086014 234.95187332 -14.63143707 234.04705719 -15.57991028 233.11482239 C-16.57084055 232.11494249 -17.56111541 231.11441268 -18.55078125 230.11328125 C-19.57423633 229.09319498 -20.5984326 228.07385186 -21.62333679 227.05522156 C-23.76729541 224.91863109 -25.90195855 222.77326721 -28.03051758 220.62133789 C-30.75870068 217.86466733 -33.50871799 215.13105425 -36.26609516 212.40362263 C-38.38469402 210.3030981 -40.49123084 208.19080121 -42.5943203 206.07475853 C-43.60375245 205.06199276 -44.61690716 204.05292318 -45.63381386 203.04766273 C-47.05354091 201.64064324 -48.45555759 200.21582109 -49.85668945 198.7902832 C-50.65879349 197.9842012 -51.46089752 197.1781192 -52.28730774 196.34761047 C-54 194 -54 194 -54.47775269 191.45487976 C-53.86638143 188.31341563 -52.772816 187.16794324 -50.49926758 184.93164062 C-49.73459671 184.16734741 -48.96992584 183.4030542 -48.18208313 182.61560059 C-47.34469101 181.80401489 -46.50729889 180.9924292 -45.64453125 180.15625 C-44.36385017 178.88618103 -44.36385017 178.88618103 -43.05729675 177.5904541 C-40.32052894 174.88169321 -37.56693595 172.19078151 -34.8125 169.5 C-32.97477158 167.68735284 -31.1381689 165.87356361 -29.30273438 164.05859375 C-25.92466015 160.7213679 -22.5403112 157.39081018 -19.14770508 154.06835938 C-16.07996939 151.06341472 -13.02867622 148.04427187 -10 145 C-3.5 138.5 -3.5 138.5 3 132 C4.12242851 130.87708054 4.12242851 130.87708054 5.26753235 129.73147583 C7.97641926 127.02357218 10.68830571 124.31871188 13.40112305 121.61474609 C18.6155835 116.41656679 23.82754602 111.21589066 29.03805828 106.01375389 C32.18396922 102.87308155 35.33081785 99.73336025 38.47973633 96.59570312 C41.53510872 93.55118315 44.58804283 90.50423782 47.63929176 87.45558548 C48.80063765 86.29608653 49.962863 85.13746776 51.12598228 83.97974777 C52.74867222 82.36430155 54.3682212 80.74576843 55.98706055 79.12646484 C56.90907761 78.2066684 57.83109467 77.28687195 58.78105164 76.33920288 C61.11548472 74.01114211 61.11548472 74.01114211 63 71 C62.82644259 65.85345582 61.20214529 63.60598273 57.5546875 60.1015625 C56.64203125 59.20953125 55.729375 58.3175 54.7890625 57.3984375 C53.8182819 56.47335606 52.8469242 55.54887986 51.875 54.625 C49.99509193 52.80706692 48.11744531 50.98679208 46.2421875 49.1640625 C44.87453247 47.83604614 44.87453247 47.83604614 43.47924805 46.48120117 C41.43002048 44.43035925 39.51235568 42.35926502 37.63671875 40.15234375 C32.44611941 34.0642611 26.62340687 28.55698826 20.9375 22.9375 C18.6311031 20.65796257 16.32701783 18.37616437 14.02734375 16.08984375 C13.48467865 15.55040131 12.94201355 15.01095886 12.38290405 14.45516968 C9.57535192 11.64412685 6.87544044 8.79727084 4.31640625 5.75390625 C2.29655056 2.98301999 2.29655056 2.98301999 0 2 C0 1.34 0 0.68 0 0 Z " fill="#258BFA" transform="translate(291,187)"/>
<path d="M0 0 C3.01658295 1.90127064 4.62083816 3.97661905 5.88671875 7.2421875 C6.13446522 10.08307934 6.13446522 10.08307934 6.13154602 13.43315125 C6.1354837 14.70459488 6.13942139 15.97603851 6.14347839 17.28601074 C6.13786941 18.69287167 6.13211186 20.09973202 6.1262207 21.5065918 C6.12733377 22.99009802 6.12939186 24.4736038 6.13232422 25.95710754 C6.13704627 29.15136351 6.13592635 32.34554596 6.13054848 35.53980064 C6.12293717 40.59598967 6.13359692 45.65203719 6.14775085 50.70820618 C6.18548313 65.08599374 6.20369583 79.46371788 6.19213867 93.84155273 C6.18591261 101.78281761 6.19755361 109.72385437 6.22858399 117.6650632 C6.2471962 122.68553393 6.24395966 127.70535649 6.22441638 132.72581613 C6.21750823 135.85880591 6.23154381 138.99144852 6.25136566 142.12437248 C6.2563903 143.57028056 6.25298678 145.01624806 6.24023247 146.46210861 C6.1739645 154.55390838 6.2459669 161.91663953 11.88671875 168.2421875 C15.16008298 170.22078774 17.58495436 170.50274136 21.40209961 170.53271484 C22.50682114 170.54547455 23.61154266 170.55823425 24.7497406 170.57138062 C25.93834183 170.57360626 27.12694305 170.57583191 28.3515625 170.578125 C29.57702286 170.5847818 30.80248322 170.5914386 32.06507874 170.59829712 C34.65657042 170.60842178 37.24808817 170.6131142 39.83959961 170.61279297 C43.80561201 170.61716698 47.77051256 170.65349356 51.73632812 170.69140625 C54.25390244 170.69727418 56.77148205 170.70124373 59.2890625 170.703125 C61.06892799 170.72468155 61.06892799 170.72468155 62.88475037 170.74667358 C69.16989584 170.74270036 69.16989584 170.74270036 74.98657227 168.65087891 C80.87102298 161.19154564 80.30762462 153.62072361 80.25561523 144.48193359 C80.25808557 142.98164089 80.26192634 141.48134991 80.26702881 139.98106384 C80.27534318 136.7606263 80.27457957 133.54036574 80.2668438 130.31992722 C80.25523262 125.22676197 80.26744582 120.13382311 80.28346252 115.04067993 C80.31960387 102.39462632 80.32588427 89.74857861 80.32336426 77.10247803 C80.32165338 67.26489941 80.3287534 57.42750636 80.36334282 47.58997977 C80.38013894 42.52748499 80.37834131 37.46544304 80.3625201 32.40295005 C80.35672583 29.25491316 80.36745769 26.10709139 80.38276672 22.95909309 C80.38649453 21.5002115 80.38338023 20.04129383 80.37289619 18.58244514 C80.35953138 16.58994458 80.37306367 14.59731785 80.38792419 12.60482788 C80.38771491 11.49025396 80.38750563 10.37568005 80.38729 9.22733116 C81.00105863 5.55876474 82.3443667 3.9044931 84.88671875 1.2421875 C89.76308582 -2.1527516 96.23180621 -1.33384086 101.88671875 -0.7578125 C105.12035503 0.40175393 107.12205855 2.06008858 109.0145359 4.98569584 C110.15997411 7.94914757 110.14477824 10.4182326 110.15414429 13.59605408 C110.16693924 15.55765472 110.16693924 15.55765472 110.17999268 17.55888367 C110.17929364 19.00662244 110.17837057 20.45436111 110.17724609 21.90209961 C110.1832314 23.42837859 110.19003695 24.95465454 110.19760132 26.48092651 C110.21527861 30.62814064 110.21995771 34.77527224 110.22123289 38.9225204 C110.22265525 41.51771256 110.2269267 44.1128838 110.23222733 46.70807076 C110.25074059 55.77455092 110.25889722 64.84097227 110.25732422 73.9074707 C110.2561258 82.33593939 110.27716578 90.76415076 110.30881155 99.19255441 C110.33505592 106.44289658 110.34568795 113.69315521 110.3444134 120.94354445 C110.34390571 125.26718753 110.34947985 129.59060247 110.3707695 133.91419792 C110.39028722 137.98958538 110.39018509 142.0645305 110.37573624 146.13993454 C110.37366295 147.62609957 110.37825945 149.11229324 110.39045715 150.59840965 C110.47554582 161.69493836 109.90780889 174.24803331 101.76171875 182.6796875 C91.69924391 192.8411375 80.74847449 196.59776687 66.68035889 196.71032715 C65.24393772 196.71159499 63.80751523 196.71177089 62.37109375 196.7109375 C60.86810021 196.71805609 59.36510933 196.72575751 57.86212158 196.73400879 C54.72196898 196.74739711 51.58206753 196.74904883 48.44189453 196.74316406 C44.4532983 196.73728372 40.46592593 196.76781534 36.47756577 196.80828094 C33.37505813 196.83436419 30.27283681 196.83701674 27.17023468 196.83338928 C25.70167221 196.83506242 24.23309384 196.84452715 22.76464081 196.86253357 C8.99939528 197.01273472 -3.01052691 194.06869465 -13.11328125 184.2421875 C-22.69036946 174.02912077 -23.56195577 164.15116246 -23.51733398 150.61230469 C-23.52304441 149.0427502 -23.53001127 147.47319987 -23.53813171 145.90365601 C-23.55599623 141.66425855 -23.5549084 137.42506881 -23.54918933 133.1856451 C-23.54609018 129.64157166 -23.55219743 126.0975377 -23.55822808 122.5534699 C-23.57224731 114.19511809 -23.57073147 105.83686857 -23.55932617 97.47851562 C-23.54782504 88.8594813 -23.56195991 80.24075741 -23.58872265 71.62176394 C-23.61086856 64.21177696 -23.6175202 56.80188752 -23.61164623 49.39186978 C-23.6082755 44.97020346 -23.61070041 40.54873652 -23.62789726 36.12709808 C-23.64334858 31.97367755 -23.6394314 27.82071862 -23.62059212 23.66731644 C-23.61690233 22.1439307 -23.62002611 20.62051087 -23.63047791 19.09715652 C-23.64366296 17.01660982 -23.63216576 14.9375974 -23.61448669 12.8571167 C-23.61427741 11.69352001 -23.61406813 10.52992332 -23.6138525 9.33106613 C-23.00769399 5.59063941 -21.71288878 3.9449813 -19.11328125 1.2421875 C-14.07001025 -2.26895054 -5.62230504 -2.01613157 0 0 Z " fill="#353535" transform="translate(527.11328125,163.7578125)"/>
<path d="M0 0 C3.36522864 1.30766711 5.45954565 3.45954565 8 6 C8.24050903 7.83499146 8.24050903 7.83499146 8.22705078 10.08251953 C8.22689972 10.92324005 8.22674866 11.76396057 8.22659302 12.63015747 C8.21627045 13.53853363 8.20594788 14.44690979 8.1953125 15.3828125 C8.1924826 16.31221649 8.18965271 17.24162048 8.18673706 18.19918823 C8.17552069 21.1745885 8.1504136 24.14969035 8.125 27.125 C8.11497208 29.13931858 8.1058459 31.15364186 8.09765625 33.16796875 C8.07557661 38.11209456 8.04103693 43.05599665 8 48 C8.66683807 47.99555878 9.33367615 47.99111755 10.02072144 47.98654175 C16.99686529 47.9420992 23.97296853 47.91204705 30.94921875 47.89013672 C33.54851924 47.88011454 36.14780855 47.86649321 38.74707031 47.84912109 C42.49547086 47.82470622 46.24372159 47.81347871 49.9921875 47.8046875 C51.14363251 47.79436493 52.29507751 47.78404236 53.48141479 47.77340698 C68.56888992 47.77133576 79.95325451 51.43622655 91.125 61.9296875 C97.91159633 69.42322095 99.30536371 79.15601938 99.2746582 88.91943359 C99.27976913 89.77260666 99.28488007 90.62577972 99.29014587 91.50480652 C99.30395483 94.30275648 99.30309163 97.10045768 99.30078125 99.8984375 C99.30467305 101.85845022 99.30900871 103.8184621 99.31376648 105.7784729 C99.32121008 109.87871031 99.32095099 113.97886159 99.31567383 118.07910156 C99.30988276 123.31310745 99.32681061 128.54675905 99.3500185 133.78070641 C99.36480648 137.82667068 99.36562064 141.87255063 99.36250877 145.91853714 C99.36301947 147.84729336 99.36820965 149.77605461 99.37832069 151.70478439 C99.48913812 175.79905888 99.48913812 175.79905888 92 185 C83.02802403 193.97197597 70.65025403 197.28520238 58.3046875 197.40625 C57.39421661 197.41765015 56.48374573 197.42905029 55.54568481 197.4407959 C53.63125188 197.45959684 51.71675568 197.47272423 49.80224609 197.48046875 C46.8761452 197.49999236 43.95279313 197.56216101 41.02734375 197.625 C39.16147491 197.63805209 37.29558613 197.64855617 35.4296875 197.65625 C34.55875458 197.6809436 33.68782166 197.70563721 32.79049683 197.7310791 C26.90285984 197.68787241 26.90285984 197.68787241 24.32858276 195.72657776 C21.28946016 192.24263402 20.31596263 189.51289633 20.375 184.9375 C20.36210938 183.93589844 20.34921875 182.93429687 20.3359375 181.90234375 C21.25195785 177.89879597 22.7967158 176.54248158 26 174 C28.90383883 173.53990195 31.22659396 173.36918911 34.1171875 173.43359375 C35.28025925 173.42514183 35.28025925 173.42514183 36.46682739 173.41651917 C38.93683815 173.40010956 41.40505259 173.41556313 43.875 173.4375 C46.33764138 173.45415578 48.7990881 173.46309565 51.26174927 173.44776917 C52.7899721 173.43857207 54.31844953 173.44737476 55.84640503 173.47740173 C61.31300167 173.44960468 64.53381327 172.20143522 69 169 C71.52983344 165.42172981 71.30249131 161.57914353 71.30639648 157.36083984 C71.31888176 156.21362961 71.31888176 156.21362961 71.33161926 155.04324341 C71.35570353 152.51575614 71.36449155 149.98852736 71.37109375 147.4609375 C71.38006481 145.6969902 71.38918674 143.93304367 71.39845276 142.1690979 C71.41494351 138.46867019 71.4226424 134.76833292 71.42553711 131.06787109 C71.43090572 126.34693907 71.46852182 121.62686889 71.51428127 116.90617943 C71.5441678 113.25994849 71.55126325 109.61392161 71.55226326 105.96757889 C71.55644646 104.22858377 71.56880377 102.48958697 71.58978081 100.75071335 C72.03443479 86.95202748 72.03443479 86.95202748 66 75 C60.43173522 71.03487984 54.38634453 71.52546538 47.8203125 71.48828125 C46.6524118 71.47033005 45.48451111 71.45237885 44.28121948 71.43388367 C40.56251603 71.37983772 36.84394054 71.34590222 33.125 71.3125 C30.59894055 71.279322 28.07289797 71.2448319 25.546875 71.20898438 C19.36469808 71.12411431 13.18250449 71.05574005 7 71 C7.00276538 71.60868518 7.00553076 72.21737036 7.00837994 72.84450054 C7.07464901 87.65895429 7.12428507 102.47339372 7.15543652 117.2879591 C7.17090177 124.45219943 7.19198466 131.61634078 7.22631836 138.78051758 C7.2562313 145.02522435 7.27557749 151.26985944 7.28226548 157.51463586 C7.28617459 160.82087108 7.29692981 164.12685355 7.31719017 167.4330349 C7.33891795 171.12499607 7.34196879 174.81653026 7.34057617 178.50854492 C7.351362 179.60330643 7.36214783 180.69806793 7.3732605 181.82600403 C7.33499592 191.18022073 7.33499592 191.18022073 4 195 C-0.81022636 198.42266107 -3.96397393 199.7682215 -10 199 C-14.70973499 197.24539285 -17.27039378 195.20289673 -20 191 C-20.38723783 188.34367666 -20.5459883 186.10422506 -20.5146637 183.45375061 C-20.52160922 182.70233825 -20.52855475 181.95092588 -20.53571075 181.17674345 C-20.55398221 178.66317982 -20.54371651 176.15055989 -20.53344727 173.63696289 C-20.5405057 171.83316848 -20.5492504 170.02937999 -20.55955505 168.2256012 C-20.58206758 163.32885941 -20.57910492 158.43244056 -20.57023358 153.5356667 C-20.5651254 149.44759405 -20.5724149 145.35958218 -20.57970566 141.27151579 C-20.59671068 131.62732699 -20.59313282 121.9832964 -20.57641602 112.33911133 C-20.5594933 102.38979207 -20.57532999 92.4409115 -20.6076389 82.49164015 C-20.63432957 73.94880808 -20.64161222 65.40611262 -20.63312382 56.86324304 C-20.62819317 51.76126428 -20.63041772 46.6595495 -20.65091133 41.55760384 C-20.6692602 36.75986239 -20.66331946 31.96275225 -20.63871193 27.16504478 C-20.63370153 25.40503886 -20.63719976 23.64498491 -20.64986038 21.8850174 C-20.66578918 19.4803635 -20.65084444 17.07778895 -20.62818909 14.67323303 C-20.64002482 13.97818619 -20.65186054 13.28313935 -20.66405493 12.56703049 C-20.55831364 7.03561182 -18.76371019 4.75961242 -15 1 C-10.59005607 -1.20497197 -4.79976377 -0.43740253 0 0 Z " fill="#353535" transform="translate(926,163)"/>
<path d="M0 0 C1.02925095 -0.01929062 2.05850189 -0.03858124 3.11894226 -0.05845642 C7.87092366 -0.11665148 12.62275545 -0.1655854 17.375 -0.19628906 C19.86440007 -0.2177369 22.3537275 -0.25167901 24.84277344 -0.29882812 C41.74600046 -0.61579888 57.86395417 -0.77917069 71.48754883 10.78295898 C79.16380165 18.23464058 81.87904138 26.3532367 82.11743164 36.83959961 C82.13735812 38.57717194 82.15105555 40.3148238 82.15942383 42.05249023 C82.1651239 42.98041382 82.17082397 43.9083374 82.17669678 44.86437988 C82.18610076 46.81753413 82.19266234 48.77070391 82.1965332 50.72387695 C82.20626886 53.69958129 82.237348 56.67460294 82.26879883 59.65014648 C82.27532727 61.55509033 82.28057837 63.46003908 82.28442383 65.36499023 C82.30294403 66.68871643 82.30294403 66.68871643 82.32183838 68.03918457 C82.30269062 73.38436476 81.88800799 77.5660237 78.95629883 82.20874023 C72.80339411 87.59215945 64.47429067 86.82108637 56.78833008 86.81030273 C55.42168158 86.81809078 54.05503787 86.82676301 52.68840027 86.83627319 C49.83816752 86.85112076 46.98843072 86.85066876 44.13818359 86.84008789 C40.49262063 86.82845539 36.84907591 86.86249176 33.20384693 86.90877724 C30.38726529 86.9382768 27.57117004 86.93999342 24.75446129 86.93375778 C22.75970381 86.93527694 20.76502151 86.96297292 18.77046204 86.99111938 C10.00643012 86.90126689 10.00643012 86.90126689 7.01855469 84.93086243 C4.08432966 81.5792636 3.27487982 78.51871337 3.33129883 74.14624023 C3.3184082 73.14463867 3.30551758 72.14303711 3.29223633 71.11108398 C4.22873484 67.01803459 5.59747791 65.73936233 8.95629883 63.20874023 C12.48002909 62.5204333 15.92848827 62.62626085 19.50708008 62.72045898 C20.52102341 62.72753372 21.53496674 62.73460846 22.57963562 62.74189758 C25.81011513 62.76983012 29.03884544 62.83256861 32.26879883 62.89624023 C34.46213313 62.92132448 36.65549466 62.94413743 38.84887695 62.96459961 C44.21861185 63.01965269 49.58733036 63.10326751 54.95629883 63.20874023 C54.87480522 59.04131006 54.76201429 54.87527769 54.64379883 50.70874023 C54.62124023 49.53569336 54.59868164 48.36264648 54.57543945 47.15405273 C54.3221414 36.73613767 54.3221414 36.73613767 49.66601562 27.62475586 C44.87403091 23.65595515 39.66638056 23.88832356 33.74536133 23.87280273 C32.85899994 23.86614594 31.97263855 23.85948914 31.05941772 23.85263062 C29.18847725 23.8425281 27.31750092 23.83781285 25.4465332 23.83813477 C22.59761625 23.83376526 19.75025412 23.79743118 16.90161133 23.75952148 C15.07869993 23.75365192 13.25578121 23.74968346 11.43286133 23.74780273 C10.16534531 23.72624619 10.16534531 23.72624619 8.8722229 23.70425415 C3.0856601 23.74853038 -0.38783803 24.67956806 -5.04370117 28.20874023 C-7.98444507 32.86634007 -8.48510978 36.9231712 -8.46362305 42.30615234 C-8.47632736 43.49028969 -8.47632736 43.49028969 -8.48928833 44.698349 C-8.51258808 47.29442687 -8.51368224 49.88990969 -8.51245117 52.48608398 C-8.51955665 54.29920181 -8.52725621 56.11231739 -8.53552246 57.9254303 C-8.54895087 61.72069555 -8.55054327 65.51575283 -8.54467773 69.31103516 C-8.53878105 74.16451342 -8.56937924 79.01699158 -8.60979462 83.87027645 C-8.63569551 87.61334063 -8.63854691 91.35616467 -8.63490295 95.09930611 C-8.63659175 96.8882149 -8.64621111 98.67713507 -8.66404724 100.46595573 C-8.68628704 102.97195504 -8.67651163 105.47593874 -8.65893555 107.98193359 C-8.67219879 108.71410095 -8.68546204 109.44626831 -8.6991272 110.20062256 C-8.60831715 115.79816866 -6.7691302 119.22347681 -3.04370117 123.20874023 C1.26163996 125.93940356 6.21624648 125.51483604 11.16723633 125.50952148 C12.49677841 125.51594917 12.49677841 125.51594917 13.85317993 125.52250671 C15.72413277 125.528237 17.59510789 125.52875988 19.46606445 125.52441406 C22.3147625 125.52125855 25.16241686 125.54471383 28.01098633 125.57006836 C29.83390169 125.57234207 31.65681983 125.57304451 33.47973633 125.57202148 C34.32474701 125.58123123 35.16975769 125.59044098 36.04037476 125.59992981 C41.42400673 125.55823098 45.20226366 124.79843234 49.95629883 122.20874023 C53.33737613 117.93790575 54.10729991 115.04564296 54.39379883 109.64624023 C54.69625997 104.14900898 55.94256745 101.92878395 59.95629883 98.20874023 C64.36644606 96.00366662 70.15630568 96.77184765 74.95629883 97.20874023 C78.20254802 98.44960723 80.3657215 100.02758558 81.95629883 103.20874023 C83.15378052 122.38807813 83.15378052 122.38807813 77.95629883 130.20874023 C77.55540039 130.88936523 77.15450195 131.56999023 76.74145508 132.27124023 C70.70725958 141.50618291 60.30803629 146.34394995 49.95629883 149.20874023 C45.5739235 149.7535368 41.24768238 149.79413778 36.83520508 149.77514648 C35.61405502 149.78134506 34.39290497 149.78754364 33.13475037 149.79393005 C30.56738069 149.800994 27.99996488 149.79791466 25.43261719 149.78515625 C21.53274198 149.77128981 17.63526908 149.80542071 13.7355957 149.84350586 C11.22713158 149.84445725 8.71866449 149.84259719 6.21020508 149.83764648 C5.05984268 149.85090469 3.90948029 149.8641629 2.72425842 149.87782288 C-9.00699164 149.74473742 -19.72707239 145.67388024 -28.04370117 137.20874023 C-37.45706875 125.13238051 -37.49898955 111.71396549 -37.44213867 97.11108398 C-37.44416391 95.26745997 -37.44707907 93.42383675 -37.45083618 91.58021545 C-37.45523728 87.73324895 -37.44889957 83.88649268 -37.43481445 80.03955078 C-37.41771183 75.13181062 -37.42758472 70.2245624 -37.44553185 65.31684017 C-37.45641949 61.51534886 -37.45290079 57.71397244 -37.44514847 53.91247749 C-37.44316083 52.10374454 -37.44555468 50.29500082 -37.45258713 48.48628044 C-37.49631296 34.08482594 -36.48454302 22.75730411 -26.55541992 11.52514648 C-19.83543842 5.10531304 -9.29304094 0.1631411 0 0 Z " fill="#363636" transform="translate(1092.043701171875,210.791259765625)"/>
<path d="M0 0 C3.8090164 1.70749011 5.41976813 2.71327654 7.13247681 6.51138306 C8.27977015 11.12505453 8.27598201 15.45651373 8.25537109 20.19287109 C8.25899155 21.20502182 8.262612 22.21717255 8.26634216 23.25999451 C8.27322089 25.45179724 8.27574446 27.64361704 8.27439499 29.83543015 C8.27342789 33.30793545 8.28639399 36.7801328 8.30337524 40.25259399 C8.34959245 50.12344996 8.37425263 59.99427389 8.38085938 69.86523438 C8.3858793 75.90880092 8.41015279 81.95204516 8.44618607 87.99550247 C8.45597147 90.29430835 8.45832292 92.59315864 8.45301437 94.89197922 C8.44592883 98.11111559 8.46325738 101.32929394 8.48583984 104.54833984 C8.47766739 105.49197891 8.46949493 106.43561798 8.46107483 107.40785217 C8.53517776 113.36306729 9.50708486 118.06817934 13 123 C17.8524575 126.61745704 22.74882844 126.42490159 28.5625 126.36328125 C29.47201416 126.36377975 30.38152832 126.36427826 31.31860352 126.36479187 C33.23488559 126.3624592 35.15117119 126.3527785 37.06738281 126.33618164 C39.99051487 126.31257659 42.91273419 126.31562869 45.8359375 126.32226562 C47.7031304 126.31668848 49.57031949 126.30957837 51.4375 126.30078125 C52.30640869 126.30169266 53.17531738 126.30260406 54.07055664 126.30354309 C58.73102571 126.24943734 62.67744141 125.96174386 67 124 C68.35336433 121.7004039 68.35336433 121.7004039 69 119 C69.34020172 118.33000473 69.68040344 117.66000946 70.03091431 116.9697113 C71.46067258 112.58829352 71.27497121 108.37765826 71.25537109 103.79711914 C71.25899155 102.77214828 71.262612 101.74717743 71.26634216 100.69114685 C71.27322797 98.46876477 71.27574313 96.24636581 71.27439499 94.02397346 C71.27342947 90.50589183 71.28637491 86.98811547 71.30337524 83.47007751 C71.34964326 73.46876376 71.37425927 63.46748155 71.38085938 53.46606445 C71.38587204 47.34585499 71.41010841 41.2259649 71.44618607 35.10586357 C71.45598821 32.7747025 71.45831378 30.44349751 71.45301437 28.11232185 C71.44594951 24.85195865 71.46321471 21.59254852 71.48583984 18.33227539 C71.47358116 16.88964828 71.47358116 16.88964828 71.46107483 15.4178772 C71.53056717 9.78836256 72.15820476 6.41906813 76 2 C80.87914668 -1.25276446 86.3012054 -0.70623099 92 0 C95.28675392 1.604604 97.34349526 3.68699052 99 7 C99.10043769 8.46795694 99.13939379 9.9403443 99.14717102 11.41171265 C99.15432632 12.33950531 99.16148163 13.26729797 99.16885376 14.22320557 C99.17154266 15.24444519 99.17423157 16.26568481 99.17700195 17.31787109 C99.18357315 18.39128754 99.19014435 19.46470398 99.19691467 20.57064819 C99.21669085 24.1382453 99.22832374 27.7058001 99.23828125 31.2734375 C99.24235678 32.49227253 99.2464323 33.71110756 99.25063133 34.96687698 C99.27151666 41.42567018 99.2858042 47.88444202 99.29516602 54.34326172 C99.30519155 60.99867439 99.34055409 67.65378148 99.38033772 74.30908775 C99.40656419 79.43771969 99.41486354 84.56627228 99.41844749 89.69496536 C99.42330273 92.14680875 99.43488614 94.59864884 99.45348549 97.05042648 C99.47799018 100.49661117 99.47689011 103.94193737 99.4699707 107.38818359 C99.48278076 108.38918091 99.49559082 109.39017822 99.50878906 110.42150879 C99.4345365 120.64423948 96.73764842 130.15362856 90.0390625 138.03515625 C80.38665866 147.33622738 67.67696119 150.62361916 54.640625 150.6015625 C52.91945465 150.61441788 52.91945465 150.61441788 51.16351318 150.62753296 C48.74998598 150.63895059 46.33639001 150.64007129 43.92285156 150.63134766 C40.27286553 150.62503952 36.62614756 150.67198124 32.9765625 150.72265625 C17.66038518 150.80486451 3.92957505 149.94610178 -8.359375 139.6875 C-17.06691351 130.73117467 -19.4546602 120.7519035 -19.41992188 108.59277344 C-19.42839142 107.48758362 -19.43686096 106.3823938 -19.44558716 105.24371338 C-19.46885797 101.61548145 -19.4699821 97.98767568 -19.46875 94.359375 C-19.47585434 91.82830639 -19.48355374 89.29723939 -19.49182129 86.76617432 C-19.50524097 81.47394699 -19.50702688 76.18187577 -19.50097656 70.88964844 C-19.49431942 64.77894262 -19.51728245 58.66883789 -19.55429029 52.558254 C-19.58869186 46.66303923 -19.59532462 40.76801006 -19.59120178 34.87268829 C-19.59289613 32.37040662 -19.60256869 29.86811723 -19.62034607 27.36589813 C-19.64244195 23.87332537 -19.63288201 20.38221551 -19.61523438 16.88964844 C-19.62849762 15.85578003 -19.64176086 14.82191162 -19.65542603 13.75671387 C-19.57290733 6.74017795 -19.57290733 6.74017795 -16.58654785 2.88189697 C-11.35780955 -0.92238091 -6.32038546 -0.58583207 0 0 Z " fill="#353535" transform="translate(776,210)"/>
<path d="M0 0 C3.57805037 1.23605376 5.35830286 2.15620405 7.6418457 5.15893555 C9.3491119 8.73029214 9.34173772 11.3192448 9.29296875 15.26953125 C9.28872391 15.95053391 9.28447906 16.63153656 9.28010559 17.33317566 C9.2634061 19.49336459 9.22577312 21.65259642 9.1875 23.8125 C9.17244174 25.28318958 9.15875534 26.75389389 9.14648438 28.22460938 C9.11353214 31.81671357 9.06181173 35.40826326 9 39 C10.0058313 38.98428955 10.0058313 38.98428955 11.03198242 38.96826172 C14.08378316 38.92656829 17.13552384 38.90063147 20.1875 38.875 C21.24259766 38.85824219 22.29769531 38.84148437 23.38476562 38.82421875 C24.40634766 38.81777344 25.42792969 38.81132812 26.48046875 38.8046875 C27.41785889 38.79421387 28.35524902 38.78374023 29.32104492 38.77294922 C32.25087894 39.02126286 34.36968225 39.70178683 37 41 C39.77115622 44.96836268 39.54760927 49.34532124 39 54 C36.90909091 59.09090909 36.90909091 59.09090909 35 61 C33.07332493 61.08748207 31.14348139 61.10697334 29.21484375 61.09765625 C27.46010742 61.09282227 27.46010742 61.09282227 25.66992188 61.08789062 C24.43822266 61.07951172 23.20652344 61.07113281 21.9375 61.0625 C20.08415039 61.05573242 20.08415039 61.05573242 18.19335938 61.04882812 C15.12885883 61.03699608 12.06445279 61.02051173 9 61 C9.0612273 73.28298502 9.13834555 85.56575784 9.23571491 97.84851265 C9.28042965 103.55198884 9.31968353 109.2553934 9.34643555 114.95898438 C9.37245723 120.46395352 9.41285206 125.96864724 9.46318626 131.47344589 C9.47986257 133.57293139 9.49137208 135.67246454 9.49761391 137.77200699 C9.50724649 140.71434609 9.53529635 143.65597933 9.56762695 146.59814453 C9.56619186 147.46489304 9.56475677 148.33164154 9.5632782 149.22465515 C9.64064173 154.20770575 10.22408866 157.68806488 13 162 C17.69525062 164.94520266 23.5585202 164.38311142 28.9375 164.47851562 C34.53408018 164.67979614 34.53408018 164.67979614 36.9609375 166.34765625 C39.76863173 170.81252339 39.47076866 175.9189452 39 181 C37.61451845 184.02286884 36.33128575 185.66871425 34 188 C30.68848517 188.45565731 27.33920988 188.32395134 24 188.3125 C22.63681641 188.33666992 22.63681641 188.33666992 21.24609375 188.36132812 C9.8145422 188.36945867 -1.45180379 184.76098136 -10.14453125 177.11328125 C-16.98046811 169.78803523 -18.45386103 162.44404073 -18.34057617 152.72851562 C-18.34123329 151.23446701 -18.34123329 151.23446701 -18.34190369 149.7102356 C-18.3398259 146.44203589 -18.31654231 143.17435929 -18.29296875 139.90625 C-18.28736921 137.63082153 -18.2831008 135.35538944 -18.28010559 133.07995605 C-18.26868506 127.10898749 -18.23924176 121.13823999 -18.20599365 115.1673584 C-18.17523261 109.06733185 -18.16158736 102.96726936 -18.14648438 96.8671875 C-18.1143695 84.91136154 -18.06320686 72.9556992 -18 61 C-19.04800781 61.03480469 -20.09601562 61.06960937 -21.17578125 61.10546875 C-22.55467147 61.13360937 -23.93357902 61.16090924 -25.3125 61.1875 C-26.00279297 61.21263672 -26.69308594 61.23777344 -27.40429688 61.26367188 C-32.51091074 61.33768077 -32.51091074 61.33768077 -34.91796875 59.67578125 C-38.08447604 54.77169596 -37.74518553 48.58512791 -37 43 C-34.25953678 39.04155313 -34.25953678 39.04155313 -31 38 C-28.00878906 37.82910156 -28.00878906 37.82910156 -24.765625 37.890625 C-23.14575684 37.91431152 -23.14575684 37.91431152 -21.49316406 37.93847656 C-20.67041992 37.9587793 -19.84767578 37.97908203 -19 38 C-19.01571045 37.14768799 -19.0314209 36.29537598 -19.04760742 35.41723633 C-19.09888962 32.23968774 -19.13642482 29.06235087 -19.16479492 25.88452148 C-19.17983432 24.51205483 -19.20027133 23.13963586 -19.22631836 21.76733398 C-19.26291221 19.78911344 -19.27816698 17.81053486 -19.29296875 15.83203125 C-19.3086792 14.64327393 -19.32438965 13.4545166 -19.34057617 12.22973633 C-18.82914073 7.37971517 -17.00275032 4.90492102 -13.4375 1.6875 C-8.81959432 -0.57947188 -5.05472391 -0.67396319 0 0 Z " fill="#343434" transform="translate(696,173)"/>
<path d="M0 0 C0.99 0.33 1.98 0.66 3 1 C2.31083842 1.688884 1.62167685 2.377768 0.91163158 3.08752728 C-2.25664554 6.25584721 -5.42141397 9.42766264 -8.58610535 12.5995636 C-9.93298693 13.94937797 -11.27987551 15.29918534 -12.62677002 16.64898682 C-13.69975971 17.72430286 -13.69975971 17.72430286 -14.79442596 18.82134247 C-31.22774095 35.28994688 -47.66669794 51.75290938 -64.10895824 68.21258259 C-65.9967245 70.1024017 -67.88448252 71.99222903 -69.7722168 73.88208008 C-70.2413818 74.3517697 -70.71054681 74.82145933 -71.19392893 75.30538198 C-78.81261049 82.93279085 -86.42775475 90.56372211 -94.04162642 98.19593201 C-101.86004779 106.0330271 -109.68231218 113.86627304 -117.50796777 121.69614476 C-121.90136344 126.09215355 -126.29296562 130.48992171 -130.68041039 134.8918705 C-134.80059033 139.02556381 -138.92537182 143.15460721 -143.05382347 147.28003883 C-144.57216158 148.79892975 -146.08877076 150.31955113 -147.60356522 151.84197617 C-149.6627711 153.91105051 -151.7279587 155.97395747 -153.79484558 158.03535461 C-154.40037913 158.64671385 -155.00591268 159.25807308 -155.62979573 159.88795835 C-159.77175654 164 -159.77175654 164 -162 164 C-160.72807839 161.2163815 -159.41812466 159.16864403 -157.25512505 157.00902939 C-156.69379966 156.4437219 -156.13247427 155.87841442 -155.55413902 155.2959764 C-154.93741297 154.68507604 -154.32068693 154.07417568 -153.68527222 153.44476318 C-153.03019499 152.78797711 -152.37511776 152.13119103 -151.70018971 151.45450234 C-149.50000415 149.25101785 -147.29273769 147.05476602 -145.08544922 144.85839844 C-143.50839008 143.28190333 -141.93177098 141.70496792 -140.3555603 140.12762451 C-136.0710266 135.84251596 -131.78034547 131.56361061 -127.48855734 127.28576946 C-123.00598687 122.81568429 -118.52906304 118.33995128 -114.05154419 113.86480713 C-106.53415869 106.35293562 -99.01329099 98.84456838 -91.48974609 91.33886719 C-83.74065799 83.60813862 -75.99367437 75.87531114 -68.24951172 68.13964844 C-67.77211787 67.66278004 -67.29472403 67.18591164 -66.8028637 66.69459268 C-64.40791918 64.30225825 -62.01301597 61.90988245 -59.61813331 59.5174861 C-39.75182381 39.6719082 -19.87820469 19.83366259 0 0 Z " fill="#FBCD64" transform="translate(231,56)"/>
<path d="M0 0 C-1.15173355 2.46800047 -2.04783565 4.04783565 -4 6 C-4.20517351 8.47021199 -4.28513523 10.82970613 -4.2784729 13.30178833 C-4.2871615 14.44366271 -4.2871615 14.44366271 -4.29602563 15.60860527 C-4.31310228 18.17286894 -4.31590867 20.73695348 -4.31884766 23.30126953 C-4.32814056 25.13405808 -4.33830826 26.96684237 -4.34928894 28.79962158 C-4.37667499 33.78693834 -4.39176375 38.77422673 -4.40471697 43.76159906 C-4.42030999 48.96934434 -4.44711232 54.17703133 -4.4727478 59.38473511 C-4.5196036 69.25153514 -4.55631472 79.11834606 -4.58942068 88.98520076 C-4.62759411 100.21602467 -4.67701672 111.44679014 -4.72740483 122.67756486 C-4.8308258 145.78499997 -4.92005305 168.8924726 -5 192 C-7.43162119 189.56837881 -7.24490285 188.27283313 -7.2814731 184.95395684 C-7.27905802 184.24794076 -7.27664293 183.54192467 -7.27415466 182.81451416 C-7.27939134 182.06566507 -7.28462802 181.31681598 -7.29002339 180.5452745 C-7.30508875 178.02264279 -7.30572996 175.50021276 -7.30639648 172.97753906 C-7.31401372 171.17419082 -7.32244046 169.37084585 -7.33161926 167.56750488 C-7.3536174 162.6582799 -7.36237057 157.74911723 -7.36744571 152.83984852 C-7.37108379 149.77402057 -7.37732104 146.70820908 -7.3844471 143.64238739 C-7.40896251 132.95006083 -7.42199748 122.25778291 -7.42553711 111.56542969 C-7.4291714 101.59404773 -7.45905384 91.62297378 -7.50094169 81.65168595 C-7.53562368 73.09619789 -7.55108521 64.54081195 -7.55178314 55.98525405 C-7.55257684 50.87314062 -7.56135744 45.76134052 -7.58978081 40.64929962 C-7.61592475 35.83932962 -7.61818721 31.02993344 -7.60212517 26.21992493 C-7.60030759 24.45506796 -7.6070292 22.6901783 -7.62294388 20.92539215 C-7.6433619 18.51405442 -7.63287982 16.10473232 -7.61473083 13.69342041 C-7.6279308 12.99632721 -7.64113077 12.29923401 -7.65473074 11.58101678 C-7.57661047 7.03107426 -5.62450444 0 0 0 Z " fill="#5B5B5B" transform="translate(913,164)"/>
<path d="M0 0 C0.495 0.99 0.495 0.99 1 2 C-4.51976391 8.5405979 -10.46518418 14.60182782 -16.52514648 20.63867188 C-17.57071576 21.6839585 -18.61606374 22.72946652 -19.66120911 23.775177 C-22.47665284 26.59090566 -25.29515182 29.40355744 -28.11424136 32.2156353 C-31.0682045 35.1633139 -34.01930407 38.11385666 -36.97071838 41.06408691 C-42.55003501 46.64030519 -48.13189406 52.21397114 -53.71468836 57.7867074 C-60.07463723 64.13544851 -66.43172023 70.48705597 -72.78857315 76.83889675 C-85.85587954 89.89577265 -98.92675123 102.94907407 -112 116 C-112.66 115.67 -113.32 115.34 -114 115 C-96 97 -78 79 -60 61 C-59.25171432 60.25138702 -58.50342865 59.50277405 -57.73246765 58.73147583 C-55.02358074 56.02357218 -52.31169429 53.31871188 -49.59887695 50.61474609 C-44.3844165 45.41656679 -39.17245398 40.21589066 -33.96194172 35.01375389 C-30.81603078 31.87308155 -27.66918215 28.73336025 -24.52026367 25.59570312 C-21.46489128 22.55118315 -18.41195717 19.50423782 -15.36070824 16.45558548 C-14.19936235 15.29608653 -13.037137 14.13746776 -11.87401772 12.97974777 C-10.25132778 11.36430155 -8.6317788 9.74576843 -7.01293945 8.12646484 C-6.09092239 7.2066684 -5.16890533 6.28687195 -4.21894836 5.33920288 C-1.88451528 3.01114211 -1.88451528 3.01114211 0 0 Z " fill="#459CFA" transform="translate(354,258)"/>
<path d="M0 0 C0.66 0 1.32 0 2 0 C0.94094773 2.1995701 -0.11143588 4.15305037 -1.55293274 6.13285828 C-3.42705427 9.8461425 -3.3983572 13.12534376 -3.34057617 17.18676758 C-3.34101425 17.99704407 -3.34145233 18.80732056 -3.34190369 19.64215088 C-3.33982024 22.30985948 -3.31651045 24.97693297 -3.29296875 27.64453125 C-3.28737121 29.49826209 -3.28310186 31.35199738 -3.28010559 33.20573425 C-3.26866927 38.0769381 -3.23921248 42.94787221 -3.20599365 47.81896973 C-3.17526665 52.79268749 -3.16159463 57.76644898 -3.14648438 62.74023438 C-3.11434165 72.49360788 -3.06315992 82.24678148 -3 92 C-5.49050933 89.50949067 -5.25078834 88.02491672 -5.29327393 84.62509155 C-5.29236755 83.87651886 -5.29146118 83.12794617 -5.29052734 82.35668945 C-5.29724457 81.56784866 -5.30396179 80.77900787 -5.31088257 79.96626282 C-5.32993719 77.3485388 -5.33379115 74.73107038 -5.3359375 72.11328125 C-5.34236263 70.29444777 -5.34909078 68.47561534 -5.35610962 66.65678406 C-5.36810272 62.83765265 -5.3717886 59.01861181 -5.37060547 55.19946289 C-5.37040271 50.31463845 -5.39765118 45.43039862 -5.43214989 40.54571247 C-5.45443778 36.78551083 -5.45844235 33.02544914 -5.45738602 29.26518822 C-5.45974119 27.46512026 -5.46856005 25.66504839 -5.48405075 23.86504555 C-5.50373962 21.33971536 -5.49786085 18.81563534 -5.48583984 16.2902832 C-5.49707886 15.55183167 -5.50831787 14.81338013 -5.51989746 14.05255127 C-5.45345762 8.53481449 -3.98643406 3.98643406 0 0 Z " fill="#E2E2E2" transform="translate(1088,237)"/>
<path d="M0 0 C0.66 0 1.32 0 2 0 C1.1875 1.9375 1.1875 1.9375 0 4 C-0.99 4.33 -1.98 4.66 -3 5 C-2.99476318 5.93384521 -2.98952637 6.86769043 -2.98413086 7.82983398 C-2.9671238 11.28312796 -2.95456698 14.73637767 -2.94506836 18.18969727 C-2.94002879 19.68644918 -2.93319713 21.18319616 -2.92456055 22.67993164 C-2.91247841 24.82699807 -2.90676809 26.97399962 -2.90234375 29.12109375 C-2.89710693 30.4145874 -2.89187012 31.70808105 -2.88647461 33.04077148 C-3 36 -3 36 -4 37 C-6.18639453 37.07258946 -8.37500389 37.08373783 -10.5625 37.0625 C-12.35880859 37.04896484 -12.35880859 37.04896484 -14.19140625 37.03515625 C-15.11824219 37.02355469 -16.04507813 37.01195312 -17 37 C-17 36.67 -17 36.34 -17 36 C-13.04 36 -9.08 36 -5 36 C-5.02356567 34.72153198 -5.02356567 34.72153198 -5.04760742 33.41723633 C-5.09888962 30.23968774 -5.13642482 27.06235087 -5.16479492 23.88452148 C-5.17983432 22.51205483 -5.20027133 21.13963586 -5.22631836 19.76733398 C-5.26291221 17.78911344 -5.27816698 15.81053486 -5.29296875 13.83203125 C-5.31653442 12.04889526 -5.31653442 12.04889526 -5.34057617 10.22973633 C-4.86402358 5.71051462 -3.1664006 3.1664006 0 0 Z " fill="#777777" transform="translate(682,175)"/>
<path d="M0 0 C-1.44077046 3.36179774 -3.24750021 5.59156268 -6 8 C-6.66 8 -7.32 8 -8 8 C-6.48291727 4.46014029 -4.24676932 0 0 0 Z " fill="#535353" transform="translate(1070,220)"/>
<path d="M0 0 C0.66 0 1.32 0 2 0 C-0.02564422 4.20710722 -2.4112324 8.1168486 -5 12 C-4.58894145 6.75900345 -3.75960806 3.75960806 0 0 Z " fill="#CACACA" transform="translate(1088,237)"/>
<path d="M0 0 C-1.44253657 3.36591866 -3.33264727 5.51047079 -6 8 C-5.62403791 5.21788056 -5.32681541 3.4120716 -3.5625 1.1875 C-2 0 -2 0 0 0 Z " fill="#585858" transform="translate(913,164)"/>
</svg>
