<svg data-v-0dd9719b="" version="1.0" xmlns="http://www.w3.org/2000/svg" xmlns:xlink="http://www.w3.org/1999/xlink" width="100%" height="100%" viewBox="0 0 340.000000 250.000000" preserveAspectRatio="xMidYMid meet" color-interpolation-filters="sRGB" style="margin: auto;"> <rect data-v-0dd9719b="" x="0" y="0" width="100%" height="100%" fill="#ffffff" fill-opacity="0" class="background"></rect> <!----> <g data-v-0dd9719b="" fill="#333333" class="icon-text-wrapper icon-svg-group iconsvg" transform="translate(55.08000183105469,94.05876731872559)"><g class="iconsvg-imagesvg" transform="matrix(1,0,0,1,0,0)" opacity="1"><g><rect fill="#333333" fill-opacity="0" stroke-width="2" x="0" y="0" width="60.00000000000001" height="61.88246457228904" class="image-rect"></rect> <svg x="0" y="0" width="60.00000000000001" height="61.88246457228904" filtersec="colorsb3636940646" class="image-svg-svg primary" style="overflow: visible;"><svg xmlns="http://www.w3.org/2000/svg" viewBox="0.03222465515136719 0 430.57891845703125 444.0901794433594"><path d="M214.23 312.43c-36.1 0-90.15 0-126.28-.28a21 21 0 0 1-13-5.24c-21.81-21.28-43.26-43-64.72-64.75-13.48-13.63-13.69-23.59-.07-37.36C48.22 166.36 86.59 128.28 124.82 90c30-30 59.89-60.13 89.63-90l66.63 67.09c-16.39 16.25-33.3 33-50.14 49.76-33.13 33.06-66.11 66.39-99.45 99.2-5.55 5.49-6 8.67 0 14.54 26 25.3 57.12 56.22 82.74 81.84" fill="#fbc64d"></path><path d="M221.4 134.94s84 0 121.2.28a20.69 20.69 0 0 1 12.79 5.45c22.12 21.49 43.79 43.43 65.56 65.27 12.68 12.76 13 22.33.24 35.22Q366.92 296.09 312 350.61c-29.63 29.66-59.4 59.16-88.83 89-5.55 5.66-9.12 6.18-14.85.28-17-17.48-34.45-34.67-51.89-51.82-4.61-4.51-5.2-7.94 0-12.93 17.93-17.48 35.47-35.33 53-53.15l13.21-13.21q37.53-37.14 74.85-74.39c10.48-10.49 10.48-11.15 0-21.46-23.62-23.71-52.43-54.3-76.13-78" fill="#258bfa"></path></svg></svg> <!----></g></g> <g transform="translate(67,6.761232376098633)"><g data-gra="path-name" fill-rule="" class="tp-name iconsvg-namesvg" opacity="1" transform="matrix(1,0,0,1,0,0)"><g transform="scale(1)"><g><path d="M37.14-45.06L37.14-9.6Q37.14-4.74 33.9-2.34L33.9-2.34Q32.34-1.2 30.69-0.57 29.04 0.06 27.48 0.06L27.48 0.06 14.4 0.06Q12.84 0.06 11.19-0.57 9.54-1.2 7.98-2.34L7.98-2.34Q6.42-3.54 5.58-5.31 4.74-7.08 4.74-9.6L4.74-9.6 4.74-45.06Q4.74-47.94 8.28-47.94L8.28-47.94Q11.88-47.94 11.88-45.06L11.88-45.06 11.88-10.08Q11.88-8.52 12.78-7.26 13.68-6 15.9-6L15.9-6 25.98-6Q28.2-6 29.1-7.26 30-8.52 30-10.08L30-10.08 30-45.06Q30-47.94 33.54-47.94L33.54-47.94Q37.14-47.94 37.14-45.06L37.14-45.06ZM58.62-30.48L53.64-30.48 53.64-8.64Q53.64-7.08 54.3-6.24 54.96-5.4 57.12-5.4L57.12-5.4 58.68-5.4Q61.02-5.4 60.9-2.64L60.9-2.64Q60.9 0.18 58.68 0.18L58.68 0.18 56.7 0.18Q54.78 0.18 53.1-0.33 51.42-0.84 49.86-1.8L49.86-1.8 49.86-1.74Q46.92-3.66 46.92-8.58L46.92-8.58 46.92-30.48 44.58-30.48Q42.42-30.48 42.3-33.3L42.3-33.3Q42.3-36.12 44.58-36.12L44.58-36.12 46.92-36.12 46.92-42.54Q46.92-45.42 50.34-45.42L50.34-45.42Q53.64-45.42 53.64-42.54L53.64-42.54 53.64-36.12 58.62-36.12Q60.96-36.12 60.84-33.3L60.84-33.3Q60.84-30.48 58.62-30.48L58.62-30.48ZM94.98-33.6L94.98-9.54Q94.98-7.14 94.14-5.28 93.3-3.42 91.74-2.28L91.74-2.28 91.8-2.28Q90.3-1.26 88.62-0.63 86.94 0 85.38 0L85.38 0 75.72 0Q74.22 0 72.51-0.63 70.8-1.26 69.3-2.28L69.3-2.28 69.36-2.28Q67.8-3.42 66.96-5.28 66.12-7.14 66.12-9.54L66.12-9.54 66.12-33.6Q66.12-36.48 69.42-36.48L69.42-36.48Q72.72-36.48 72.72-33.6L72.72-33.6 72.72-10.02Q72.72-8.34 73.56-7.08L73.56-7.08Q74.34-5.64 76.8-5.64L76.8-5.64 84.3-5.64Q86.7-5.64 87.48-7.08L87.48-7.08 87.42-7.02Q88.38-8.46 88.38-10.02L88.38-10.02 88.38-33.6Q88.38-36.48 91.68-36.48L91.68-36.48Q94.98-36.48 94.98-33.6L94.98-33.6ZM109.08-30.48L109.02-2.52Q109.02-1.08 108-0.36 106.98 0.36 105.78 0.36L105.78 0.36Q102.48 0.36 102.48-2.52L102.48-2.52 102.48-45.12Q102.48-48 105.78-48L105.78-48Q109.08-48 109.08-45.12L109.08-45.12 109.08-36.12 121.74-36.12Q124.8-36.12 128.1-33.84L128.1-33.84Q131.34-31.56 131.34-26.64L131.34-26.64 131.34-8.76Q131.34-3.78 128.4-1.92L128.4-1.92Q125.46 0 121.68 0L121.68 0 114.6 0Q112.44 0 112.32-2.82L112.32-2.82Q112.32-5.64 114.6-5.64L114.6-5.64 120.6-5.64Q122.82-5.64 123.78-6.45 124.74-7.26 124.74-8.82L124.74-8.82 124.74-26.1Q124.74-27.66 123.78-29.1L123.78-29.1 123.84-29.04Q123.06-30.48 120.66-30.48L120.66-30.48 109.08-30.48ZM145.32-26.58L145.32-9.6Q145.32-8.16 146.25-6.9 147.18-5.64 149.4-5.64L149.4-5.64 156.9-5.64Q159.12-5.64 160.05-6.75 160.98-7.86 160.98-9.3L160.98-9.3 160.98-9.96Q160.98-12.78 164.28-12.78L164.28-12.78Q167.58-12.78 167.58-9.96L167.58-9.96 167.58-9.24Q167.58-6.72 166.77-5.1 165.96-3.48 164.34-2.28L164.34-2.28Q161.16 0 157.98 0L157.98 0 147.9 0Q144.72 0 141.72-2.28L141.72-2.28Q140.28-3.48 139.5-5.31 138.72-7.14 138.72-9.54L138.72-9.54 138.72-26.64Q138.72-31.5 141.72-33.84L141.72-33.84Q143.22-34.92 144.81-35.55 146.4-36.18 147.9-36.18L147.9-36.18 157.98-36.18Q159.42-36.18 161.16-35.61 162.9-35.04 164.4-34.08L164.4-34.08Q165.84-33.06 166.71-31.26 167.58-29.46 167.58-27L167.58-27 167.58-18.9Q167.58-17.52 166.77-16.44 165.96-15.36 163.8-15.36L163.8-15.36 150.84-15.36Q148.68-15.36 148.56-18.18L148.56-18.18Q148.56-21 150.84-21L150.84-21 161.04-21 160.98-26.58Q160.98-28.08 160.05-29.31 159.12-30.54 156.9-30.54L156.9-30.54 149.4-30.54Q147.18-30.54 146.25-29.31 145.32-28.08 145.32-26.58L145.32-26.58Z" transform="translate(-4.739999771118164, 48)"></path></g> <!----> <!----> <!----> <!----> <!----> <!----> <!----></g></g> <!----></g></g><defs v-gra="od"></defs></svg>